<svg width="32" height="32" viewBox="0 0 32 32" fill="none" xmlns="http://www.w3.org/2000/svg">
<rect width="32" height="32" rx="16" fill="#2E2B2E"/>
<path fill-rule="evenodd" clip-rule="evenodd" d="M23.5937 16C23.5937 16.2238 23.5048 16.4384 23.3466 16.5966C23.1884 16.7548 22.9738 16.8437 22.75 16.8437L11.2862 16.8437L14.3462 19.9037C14.4953 20.0637 14.5764 20.2752 14.5726 20.4938C14.5687 20.7124 14.4802 20.921 14.3256 21.0756C14.171 21.2302 13.9624 21.3187 13.7438 21.3226C13.5252 21.3264 13.3137 21.2453 13.1537 21.0962L8.65374 16.5962C8.49573 16.438 8.40698 16.2236 8.40698 16C8.40698 15.7764 8.49573 15.5619 8.65374 15.4037L13.1537 10.9037C13.3137 10.7547 13.5252 10.6736 13.7438 10.6774C13.9624 10.6813 14.171 10.7698 14.3256 10.9244C14.4802 11.079 14.5687 11.2876 14.5726 11.5062C14.5764 11.7247 14.4953 11.9363 14.3462 12.0962L11.2862 15.1562L22.75 15.1562C22.9738 15.1562 23.1884 15.2451 23.3466 15.4034C23.5048 15.5616 23.5937 15.7762 23.5937 16Z" fill="#FDFDFC"/>
</svg>
