<svg width="17" height="18" viewBox="0 0 17 18" fill="none" xmlns="http://www.w3.org/2000/svg">
<path d="M16.6633 15.8367L12.9531 12.125C14.0656 10.6754 14.5849 8.85687 14.4059 7.03839C14.2268 5.21991 13.3628 3.53763 11.989 2.3328C10.6152 1.12798 8.83451 0.490822 7.00822 0.550592C5.18193 0.610363 3.44675 1.36258 2.15467 2.65466C0.862597 3.94673 0.110378 5.68191 0.0506077 7.5082C-0.0091626 9.3345 0.627991 11.1151 1.83282 12.4889C3.03765 13.8627 4.71993 14.7268 6.53841 14.9059C8.35688 15.0849 10.1754 14.5655 11.625 13.4531L15.3383 17.1672C15.4255 17.2544 15.529 17.3236 15.643 17.3708C15.7569 17.418 15.879 17.4422 16.0024 17.4422C16.1257 17.4422 16.2478 17.418 16.3617 17.3708C16.4757 17.3236 16.5792 17.2544 16.6664 17.1672C16.7536 17.08 16.8228 16.9765 16.87 16.8625C16.9172 16.7486 16.9415 16.6264 16.9415 16.5031C16.9415 16.3798 16.9172 16.2577 16.87 16.1437C16.8228 16.0298 16.7536 15.9263 16.6664 15.8391L16.6633 15.8367ZM1.93752 7.75C1.93752 6.69929 2.24909 5.67217 2.83283 4.79853C3.41658 3.9249 4.24628 3.24398 5.21701 2.84189C6.18774 2.4398 7.25591 2.33459 8.28643 2.53958C9.31696 2.74456 10.2636 3.25053 11.0065 3.99349C11.7495 4.73646 12.2555 5.68306 12.4604 6.71358C12.6654 7.74411 12.5602 8.81227 12.1581 9.783C11.756 10.7537 11.0751 11.5834 10.2015 12.1672C9.32785 12.7509 8.30073 13.0625 7.25002 13.0625C5.8415 13.0611 4.49108 12.5009 3.49511 11.5049C2.49914 10.5089 1.93896 9.15852 1.93752 7.75Z" fill="#2E2B2E"/>
</svg>
